<svg width="92" height="59" viewBox="0 0 92 59" fill="none" xmlns="http://www.w3.org/2000/svg">
<g filter="url(#filter0_d_120_165)">
<rect x="15" y="12" width="58" height="30" rx="3" fill="#F7C311"/>
<path d="M22.38 31.87C22.0067 31.87 21.6633 31.77 21.35 31.57C21.0367 31.3767 20.7867 31.0933 20.6 30.72C20.4133 30.34 20.32 29.8867 20.32 29.36C20.32 28.8467 20.4 28.3267 20.56 27.8C20.72 27.2733 20.94 26.7733 21.22 26.3C21.5 25.82 21.82 25.3933 22.18 25.02C22.54 24.6467 22.92 24.3533 23.32 24.14C23.7267 23.92 24.1333 23.81 24.54 23.81C24.8333 23.81 25.0667 23.8667 25.24 23.98C25.4133 24.0867 25.5367 24.23 25.61 24.41C25.69 24.59 25.73 24.7833 25.73 24.99C25.73 25.2233 25.6867 25.4567 25.6 25.69C25.52 25.9233 25.4067 26.1167 25.26 26.27C25.12 26.4233 24.9633 26.5 24.79 26.5C24.71 26.5 24.6367 26.4767 24.57 26.43C24.5033 26.3833 24.4367 26.2967 24.37 26.17C24.47 26.1033 24.58 25.9867 24.7 25.82C24.8267 25.6533 24.9367 25.47 25.03 25.27C25.1233 25.0633 25.17 24.88 25.17 24.72C25.17 24.5867 25.1267 24.4767 25.04 24.39C24.96 24.2967 24.8233 24.25 24.63 24.25C24.33 24.25 24.02 24.3633 23.7 24.59C23.3867 24.81 23.0867 25.1067 22.8 25.48C22.5133 25.8467 22.2533 26.26 22.02 26.72C21.7933 27.1733 21.6133 27.64 21.48 28.12C21.3467 28.5933 21.28 29.0433 21.28 29.47C21.28 30.0767 21.41 30.55 21.67 30.89C21.9367 31.2233 22.2533 31.39 22.62 31.39C22.8933 31.39 23.1433 31.3033 23.37 31.13C23.6033 30.9567 23.8067 30.73 23.98 30.45C24.16 30.1633 24.3033 29.8533 24.41 29.52C24.5167 29.1867 24.5833 28.86 24.61 28.54C24.4433 28.5067 24.27 28.4833 24.09 28.47C23.9167 28.45 23.7333 28.44 23.54 28.44C23.4333 28.44 23.3267 28.4433 23.22 28.45C23.1133 28.45 23 28.4533 22.88 28.46C22.94 28.2267 23.0333 28.0567 23.16 27.95C23.2933 27.8367 23.4667 27.78 23.68 27.78C23.88 27.78 24.08 27.8133 24.28 27.88C24.4867 27.94 24.6933 28.0067 24.9 28.08C25.1133 28.1533 25.32 28.2133 25.52 28.26L25.42 28.57C25.3 28.9367 25.2 29.2433 25.12 29.49C25.0467 29.73 24.99 29.9367 24.95 30.11C24.91 30.2767 24.8833 30.43 24.87 30.57C24.8567 30.7033 24.85 30.8433 24.85 30.99C24.85 31.1233 24.8533 31.26 24.86 31.4C24.8667 31.5467 24.8733 31.7233 24.88 31.93C24.68 31.9033 24.53 31.8433 24.43 31.75C24.3367 31.6633 24.2733 31.56 24.24 31.44C24.2133 31.32 24.2 31.2033 24.2 31.09C24.2 31.0567 24.2 31.0233 24.2 30.99C24.2 30.9567 24.2033 30.9233 24.21 30.89C23.9767 31.1767 23.7067 31.41 23.4 31.59C23.1 31.7767 22.76 31.87 22.38 31.87ZM26.5096 31.32C26.2096 31.32 26.0029 31.22 25.8896 31.02C25.7829 30.8267 25.7296 30.6133 25.7296 30.38C25.7296 30.1667 25.7629 29.95 25.8296 29.73C25.8963 29.5033 25.9863 29.2933 26.0996 29.1C26.2196 28.9067 26.3496 28.7533 26.4896 28.64C26.6363 28.52 26.7829 28.46 26.9296 28.46C26.9763 28.46 27.0296 28.47 27.0896 28.49C27.1563 28.5033 27.2029 28.5267 27.2296 28.56C27.1496 28.66 27.0663 28.7833 26.9796 28.93C26.8996 29.0767 26.8229 29.2333 26.7496 29.4C26.6829 29.56 26.6296 29.7233 26.5896 29.89C26.5496 30.0567 26.5296 30.21 26.5296 30.35C26.5296 30.4833 26.5529 30.5933 26.5996 30.68C26.6529 30.7667 26.7429 30.81 26.8696 30.81C26.9963 30.81 27.1463 30.74 27.3196 30.6C27.4996 30.4533 27.6696 30.2867 27.8296 30.1C27.6163 29.9067 27.4629 29.6967 27.3696 29.47C27.2763 29.2367 27.2296 28.9567 27.2296 28.63C27.2296 28.49 27.2629 28.33 27.3296 28.15C27.4029 27.97 27.5163 27.8133 27.6696 27.68C27.8296 27.5467 28.0429 27.48 28.3096 27.48C28.5963 27.48 28.7963 27.56 28.9096 27.72C29.0296 27.88 29.0896 28.07 29.0896 28.29C29.0896 28.5367 29.0229 28.8133 28.8896 29.12C28.7629 29.4267 28.6096 29.7167 28.4296 29.99C28.5096 30.03 28.6029 30.05 28.7096 30.05C28.8096 30.05 28.9296 30.0267 29.0696 29.98C29.2096 29.9333 29.3463 29.8567 29.4796 29.75C29.6129 29.6367 29.7196 29.4867 29.7996 29.3L29.9796 29.43C29.8329 29.77 29.6363 30.02 29.3896 30.18C29.1496 30.3333 28.9129 30.41 28.6796 30.41C28.5929 30.41 28.5063 30.4033 28.4196 30.39C28.3329 30.37 28.2529 30.3467 28.1796 30.32C27.9529 30.5867 27.6929 30.82 27.3996 31.02C27.1063 31.22 26.8096 31.32 26.5096 31.32ZM28.0896 29.78C28.2496 29.5467 28.3863 29.2967 28.4996 29.03C28.6129 28.7633 28.6696 28.5167 28.6696 28.29C28.6696 28.1367 28.6463 28.0267 28.5996 27.96C28.5529 27.8867 28.4829 27.85 28.3896 27.85C28.2629 27.85 28.1329 27.94 27.9996 28.12C27.8663 28.3 27.7996 28.5267 27.7996 28.8C27.7996 28.94 27.8229 29.11 27.8696 29.31C27.9229 29.51 27.9963 29.6667 28.0896 29.78ZM34.668 31.87C34.1613 31.87 33.7446 31.75 33.418 31.51C33.098 31.27 32.8613 30.96 32.708 30.58C32.5613 30.2 32.488 29.8067 32.488 29.4C32.488 28.8733 32.568 28.3467 32.728 27.82C32.888 27.2867 33.108 26.78 33.388 26.3C33.6746 25.82 33.998 25.3933 34.358 25.02C34.718 24.6467 35.1013 24.3533 35.508 24.14C35.9213 23.92 36.3313 23.81 36.738 23.81C37.0313 23.81 37.278 23.88 37.478 24.02C37.678 24.1533 37.778 24.3867 37.778 24.72C37.778 24.92 37.7413 25.1433 37.668 25.39C37.6013 25.6367 37.508 25.8767 37.388 26.11C37.2746 26.3367 37.1446 26.5233 36.998 26.67C36.8513 26.8167 36.7013 26.89 36.548 26.89C36.4813 26.89 36.4113 26.8667 36.338 26.82C36.2646 26.7733 36.198 26.6933 36.138 26.58C36.238 26.4667 36.3513 26.33 36.478 26.17C36.6046 26.0033 36.7246 25.83 36.838 25.65C36.9513 25.4633 37.0446 25.2833 37.118 25.11C37.1913 24.93 37.228 24.7733 37.228 24.64C37.228 24.52 37.1946 24.4267 37.128 24.36C37.0613 24.2867 36.9446 24.25 36.778 24.25C36.4846 24.25 36.1813 24.36 35.868 24.58C35.5613 24.8 35.2646 25.0967 34.978 25.47C34.6913 25.8367 34.4313 26.25 34.198 26.71C33.9713 27.1633 33.7913 27.6333 33.658 28.12C33.5246 28.6 33.458 29.0567 33.458 29.49C33.458 29.81 33.5046 30.1167 33.598 30.41C33.698 30.6967 33.8546 30.93 34.068 31.11C34.2813 31.2967 34.5613 31.39 34.908 31.39C35.268 31.39 35.6246 31.29 35.978 31.09C36.338 30.89 36.6646 30.6267 36.958 30.3C37.258 29.9733 37.498 29.6233 37.678 29.25L37.938 29.42C37.7046 29.8667 37.4246 30.2767 37.098 30.65C36.7713 31.0167 36.4013 31.31 35.988 31.53C35.5813 31.7567 35.1413 31.87 34.668 31.87ZM38.0014 31.47C37.7814 31.47 37.5914 31.3967 37.4314 31.25C37.2647 31.1033 37.1814 30.8833 37.1814 30.59C37.1814 30.3567 37.2347 30.1033 37.3414 29.83C37.4481 29.5567 37.5947 29.2867 37.7814 29.02C37.9681 28.7533 38.1814 28.5133 38.4214 28.3C38.6614 28.08 38.9181 27.9033 39.1914 27.77C39.4647 27.6367 39.7381 27.57 40.0114 27.57C40.2981 27.57 40.5414 27.6433 40.7414 27.79C40.9414 27.9367 41.0414 28.13 41.0414 28.37C41.0414 28.55 40.9781 28.68 40.8514 28.76C40.7247 28.84 40.5747 28.8633 40.4014 28.83C40.4147 28.77 40.4247 28.71 40.4314 28.65C40.4447 28.59 40.4514 28.5267 40.4514 28.46C40.4514 28.3267 40.4247 28.2067 40.3714 28.1C40.3181 27.9933 40.2047 27.94 40.0314 27.94C39.8447 27.94 39.6547 28.0033 39.4614 28.13C39.2681 28.2567 39.0814 28.4233 38.9014 28.63C38.7281 28.83 38.5714 29.0533 38.4314 29.3C38.2914 29.54 38.1814 29.7767 38.1014 30.01C38.0214 30.2433 37.9814 30.4533 37.9814 30.64C37.9814 30.8533 38.0581 30.96 38.2114 30.96C38.3647 30.96 38.5347 30.8867 38.7214 30.74C38.9081 30.5867 39.0947 30.3967 39.2814 30.17C39.4747 29.9433 39.6581 29.7133 39.8314 29.48C40.0047 29.24 40.1547 29.0367 40.2814 28.87C40.3014 28.8367 40.3281 28.82 40.3614 28.82C40.3881 28.8267 40.4381 28.8433 40.5114 28.87C40.5914 28.89 40.6647 28.9233 40.7314 28.97C40.7981 29.0167 40.8314 29.0767 40.8314 29.15C40.8314 29.2167 40.8014 29.3033 40.7414 29.41C40.6881 29.51 40.6214 29.6233 40.5414 29.75C40.4681 29.87 40.4014 29.9933 40.3414 30.12C40.2881 30.24 40.2614 30.3567 40.2614 30.47C40.2614 30.5567 40.2847 30.64 40.3314 30.72C40.3781 30.7933 40.4547 30.83 40.5614 30.83C40.7214 30.83 40.9447 30.7133 41.2314 30.48C41.5247 30.24 41.8214 29.8367 42.1214 29.27L42.3114 29.46C42.1514 29.82 41.9581 30.14 41.7314 30.42C41.5114 30.6933 41.2781 30.9067 41.0314 31.06C40.7847 31.22 40.5347 31.3 40.2814 31.3C40.0081 31.3 39.8047 31.2133 39.6714 31.04C39.5381 30.8667 39.4647 30.68 39.4514 30.48C39.4514 30.4667 39.4514 30.4567 39.4514 30.45C39.4514 30.4433 39.4514 30.4367 39.4514 30.43C39.1847 30.75 38.9381 31.0033 38.7114 31.19C38.4914 31.3767 38.2547 31.47 38.0014 31.47ZM43.0548 31.51C42.7214 31.51 42.4514 31.44 42.2448 31.3C42.0448 31.1667 41.9014 30.9967 41.8148 30.79C41.7281 30.5767 41.6848 30.36 41.6848 30.14C41.6848 29.9467 41.7114 29.7967 41.7648 29.69C41.8181 29.5833 41.8848 29.5067 41.9648 29.46C42.0448 29.4067 42.1181 29.3667 42.1848 29.34C42.2581 29.3133 42.3114 29.2833 42.3448 29.25C42.5114 29.0767 42.6814 28.8767 42.8548 28.65C43.0348 28.4167 43.1881 28.16 43.3148 27.88V27.78C43.3148 27.5133 43.3581 27.3267 43.4448 27.22C43.5381 27.1067 43.6448 27.05 43.7648 27.05C43.8448 27.05 43.9014 27.07 43.9348 27.11C43.9748 27.15 43.9981 27.1967 44.0048 27.25C44.0048 27.29 43.9948 27.3367 43.9748 27.39C43.9614 27.4433 43.9548 27.5167 43.9548 27.61C43.9548 27.81 44.0014 28.04 44.0948 28.3C44.1948 28.5533 44.2914 28.8233 44.3848 29.11C44.4848 29.3967 44.5348 29.69 44.5348 29.99C44.5348 30.07 44.5314 30.1433 44.5248 30.21C44.5181 30.2767 44.5081 30.34 44.4948 30.4C44.7014 30.3467 44.9048 30.2333 45.1048 30.06C45.3048 29.88 45.4948 29.6167 45.6748 29.27L45.7948 29.36C45.6681 29.74 45.4848 30.0467 45.2448 30.28C45.0048 30.5067 44.7248 30.6467 44.4048 30.7C44.2981 30.9733 44.1214 31.1767 43.8748 31.31C43.6348 31.4433 43.3614 31.51 43.0548 31.51ZM42.9848 31.07C43.1181 31.07 43.2414 31.0367 43.3548 30.97C43.4681 30.9033 43.5581 30.8067 43.6248 30.68C43.3514 30.62 43.1048 30.5133 42.8848 30.36C42.6648 30.2067 42.4948 30.05 42.3748 29.89C42.2814 29.91 42.2348 30 42.2348 30.16C42.2348 30.38 42.2981 30.5867 42.4248 30.78C42.5514 30.9733 42.7381 31.07 42.9848 31.07ZM43.7048 30.38C43.7181 30.3333 43.7248 30.28 43.7248 30.22C43.7314 30.1533 43.7348 30.1033 43.7348 30.07C43.7281 29.77 43.6881 29.4733 43.6148 29.18C43.5414 28.8867 43.4681 28.5867 43.3948 28.28C43.2748 28.4867 43.1348 28.71 42.9748 28.95C42.8148 29.19 42.6648 29.3833 42.5248 29.53C42.6314 29.71 42.7881 29.88 42.9948 30.04C43.2014 30.2 43.4381 30.3133 43.7048 30.38ZM45.8506 31.38C45.704 31.38 45.5973 31.2667 45.5306 31.04C45.4706 30.8133 45.4406 30.55 45.4406 30.25C45.4406 29.9433 45.4906 29.5733 45.5906 29.14C45.6973 28.7067 45.8373 28.25 46.0106 27.77C46.1906 27.29 46.3873 26.82 46.6006 26.36C46.8206 25.9 47.044 25.4833 47.2706 25.11C47.504 24.73 47.724 24.4267 47.9306 24.2C48.144 23.9733 48.3306 23.86 48.4906 23.86C48.6306 23.86 48.7373 23.9367 48.8106 24.09C48.884 24.2433 48.9206 24.4033 48.9206 24.57C48.9206 24.75 48.8773 24.9733 48.7906 25.24C48.7106 25.5 48.5973 25.78 48.4506 26.08C48.304 26.38 48.1306 26.6767 47.9306 26.97C47.7373 27.2567 47.524 27.52 47.2906 27.76C47.064 28 46.8273 28.1933 46.5806 28.34C46.494 28.5667 46.424 28.78 46.3706 28.98C46.324 29.1733 46.2906 29.3567 46.2706 29.53C46.2506 29.7033 46.2406 29.8733 46.2406 30.04C46.2406 30.0733 46.2406 30.11 46.2406 30.15C46.2473 30.1833 46.2506 30.2167 46.2506 30.25C46.2773 30.21 46.3206 30.1067 46.3806 29.94C46.4406 29.7733 46.5206 29.58 46.6206 29.36C46.7273 29.1333 46.8573 28.9133 47.0106 28.7C47.164 28.48 47.344 28.3 47.5506 28.16C47.7573 28.0133 47.994 27.94 48.2606 27.94C48.4873 27.94 48.664 27.9933 48.7906 28.1C48.9173 28.2 49.0073 28.3267 49.0606 28.48C49.114 28.6267 49.1406 28.7767 49.1406 28.93C49.1406 29.1433 49.104 29.3433 49.0306 29.53C48.964 29.7167 48.894 29.8933 48.8206 30.06C48.754 30.22 48.7206 30.3733 48.7206 30.52C48.7206 30.64 48.7473 30.7233 48.8006 30.77C48.854 30.8167 48.9173 30.84 48.9906 30.84C49.1373 30.84 49.3073 30.7667 49.5006 30.62C49.7006 30.4733 49.8973 30.28 50.0906 30.04C50.2906 29.7933 50.4606 29.5233 50.6006 29.23L50.7606 29.4C50.6073 29.7333 50.4273 30.04 50.2206 30.32C50.014 30.6 49.7873 30.8233 49.5406 30.99C49.294 31.1567 49.0273 31.24 48.7406 31.24C48.4873 31.24 48.294 31.1733 48.1606 31.04C48.0273 30.9067 47.9606 30.74 47.9606 30.54C47.9606 30.4 47.984 30.2467 48.0306 30.08C48.084 29.9067 48.134 29.7333 48.1806 29.56C48.2273 29.3867 48.2506 29.23 48.2506 29.09C48.2506 28.93 48.214 28.82 48.1406 28.76C48.074 28.7 47.9906 28.67 47.8906 28.67C47.724 28.67 47.574 28.7367 47.4406 28.87C47.3073 28.9967 47.1873 29.1633 47.0806 29.37C46.974 29.5767 46.874 29.7967 46.7806 30.03C46.6873 30.2567 46.594 30.4733 46.5006 30.68C46.4073 30.8867 46.3073 31.0533 46.2006 31.18C46.1006 31.3133 45.984 31.38 45.8506 31.38ZM46.7906 27.7C46.964 27.5467 47.1306 27.3633 47.2906 27.15C47.4506 26.9367 47.5973 26.7167 47.7306 26.49C47.8706 26.2567 47.9906 26.0333 48.0906 25.82C48.1973 25.6 48.2806 25.4033 48.3406 25.23C48.4006 25.0567 48.434 24.9233 48.4406 24.83C48.4406 24.8233 48.4406 24.82 48.4406 24.82C48.4406 24.8133 48.4406 24.8067 48.4406 24.8C48.4006 24.8 48.314 24.8833 48.1806 25.05C48.054 25.21 47.904 25.43 47.7306 25.71C47.564 25.9833 47.394 26.2933 47.2206 26.64C47.054 26.9867 46.9106 27.34 46.7906 27.7ZM51.192 31.3C50.8787 31.3 50.6587 31.1967 50.532 30.99C50.412 30.7767 50.352 30.5267 50.352 30.24C50.352 29.9133 50.412 29.53 50.532 29.09C50.652 28.65 50.8087 28.19 51.002 27.71C51.202 27.2233 51.4187 26.75 51.652 26.29C51.892 25.8233 52.132 25.4033 52.372 25.03C52.612 24.6567 52.832 24.36 53.032 24.14C53.2387 23.9133 53.4054 23.8 53.532 23.8C53.6187 23.8 53.692 23.8467 53.752 23.94C53.812 24.0267 53.8587 24.1333 53.892 24.26C53.932 24.38 53.952 24.4933 53.952 24.6C53.952 24.78 53.9054 25.0167 53.812 25.31C53.7254 25.5967 53.5987 25.9133 53.432 26.26C53.272 26.6067 53.0787 26.9633 52.852 27.33C52.632 27.69 52.3854 28.0333 52.112 28.36C51.8454 28.6867 51.5587 28.97 51.252 29.21C51.2254 29.3767 51.1987 29.5433 51.172 29.71C51.152 29.87 51.142 30.0167 51.142 30.15C51.142 30.39 51.182 30.5667 51.262 30.68C51.342 30.7867 51.4454 30.84 51.572 30.84C51.7387 30.84 51.9087 30.7633 52.082 30.61C52.262 30.45 52.432 30.25 52.592 30.01C52.7587 29.7633 52.902 29.51 53.022 29.25L53.262 29.38C52.9754 29.9733 52.6554 30.4433 52.302 30.79C51.9487 31.13 51.5787 31.3 51.192 31.3ZM51.432 28.59C51.6587 28.3433 51.872 28.0767 52.072 27.79C52.2787 27.4967 52.4654 27.2 52.632 26.9C52.8054 26.6 52.9554 26.31 53.082 26.03C53.2087 25.75 53.3054 25.5 53.372 25.28C53.4454 25.0533 53.4854 24.8733 53.492 24.74C53.492 24.7333 53.492 24.73 53.492 24.73C53.492 24.7233 53.492 24.7167 53.492 24.71C53.4387 24.71 53.352 24.7867 53.232 24.94C53.1187 25.0867 52.982 25.29 52.822 25.55C52.662 25.81 52.4954 26.1067 52.322 26.44C52.1554 26.7733 51.992 27.1267 51.832 27.5C51.6787 27.8667 51.5454 28.23 51.432 28.59ZM53.9432 31.44C53.5165 31.44 53.1865 31.3233 52.9532 31.09C52.7265 30.8633 52.6132 30.5767 52.6132 30.23C52.6132 29.9367 52.6865 29.6267 52.8332 29.3C52.9865 28.9667 53.1899 28.6567 53.4432 28.37C53.6965 28.0767 53.9765 27.84 54.2832 27.66C54.5899 27.48 54.8965 27.39 55.2032 27.39C55.3765 27.39 55.5399 27.4367 55.6932 27.53C55.8532 27.6167 55.9332 27.7933 55.9332 28.06C55.9332 28.3133 55.8599 28.55 55.7132 28.77C55.5665 28.99 55.3699 29.1867 55.1232 29.36C54.8765 29.5333 54.6032 29.6767 54.3032 29.79C54.0099 29.8967 53.7132 29.9667 53.4132 30C53.4065 30.0267 53.3999 30.0567 53.3932 30.09C53.3932 30.1167 53.3932 30.1633 53.3932 30.23C53.3932 30.2633 53.3965 30.3233 53.4032 30.41C53.4165 30.49 53.4465 30.5767 53.4932 30.67C53.5399 30.7633 53.6165 30.8433 53.7232 30.91C53.8299 30.9767 53.9765 31.01 54.1632 31.01C54.4432 31.01 54.7232 30.9333 55.0032 30.78C55.2899 30.62 55.5565 30.41 55.8032 30.15C56.0565 29.89 56.2665 29.6 56.4332 29.28L56.6332 29.44C56.4532 29.84 56.2199 30.19 55.9332 30.49C55.6532 30.79 55.3399 31.0233 54.9932 31.19C54.6532 31.3567 54.3032 31.44 53.9432 31.44ZM53.5232 29.63C53.6965 29.61 53.8899 29.55 54.1032 29.45C54.3165 29.35 54.5199 29.2233 54.7132 29.07C54.9132 28.9167 55.0765 28.75 55.2032 28.57C55.3299 28.3833 55.3932 28.1967 55.3932 28.01C55.3932 27.9367 55.3799 27.8867 55.3532 27.86C55.3265 27.8333 55.2832 27.82 55.2232 27.82C55.0699 27.82 54.9099 27.8767 54.7432 27.99C54.5765 28.0967 54.4132 28.24 54.2532 28.42C54.0932 28.5933 53.9499 28.7867 53.8232 29C53.6965 29.2133 53.5965 29.4233 53.5232 29.63ZM57.3614 31.51C57.0281 31.51 56.7581 31.44 56.5514 31.3C56.3514 31.1667 56.2081 30.9967 56.1214 30.79C56.0347 30.5767 55.9914 30.36 55.9914 30.14C55.9914 29.9467 56.0181 29.7967 56.0714 29.69C56.1247 29.5833 56.1914 29.5067 56.2714 29.46C56.3514 29.4067 56.4247 29.3667 56.4914 29.34C56.5647 29.3133 56.6181 29.2833 56.6514 29.25C56.8181 29.0767 56.9881 28.8767 57.1614 28.65C57.3414 28.4167 57.4947 28.16 57.6214 27.88V27.78C57.6214 27.5133 57.6647 27.3267 57.7514 27.22C57.8447 27.1067 57.9514 27.05 58.0714 27.05C58.1514 27.05 58.2081 27.07 58.2414 27.11C58.2814 27.15 58.3047 27.1967 58.3114 27.25C58.3114 27.29 58.3014 27.3367 58.2814 27.39C58.2681 27.4433 58.2614 27.5167 58.2614 27.61C58.2614 27.81 58.3081 28.04 58.4014 28.3C58.5014 28.5533 58.5981 28.8233 58.6914 29.11C58.7914 29.3967 58.8414 29.69 58.8414 29.99C58.8414 30.07 58.8381 30.1433 58.8314 30.21C58.8247 30.2767 58.8147 30.34 58.8014 30.4C59.0081 30.3467 59.2114 30.2333 59.4114 30.06C59.6114 29.88 59.8014 29.6167 59.9814 29.27L60.1014 29.36C59.9747 29.74 59.7914 30.0467 59.5514 30.28C59.3114 30.5067 59.0314 30.6467 58.7114 30.7C58.6047 30.9733 58.4281 31.1767 58.1814 31.31C57.9414 31.4433 57.6681 31.51 57.3614 31.51ZM57.2914 31.07C57.4247 31.07 57.5481 31.0367 57.6614 30.97C57.7747 30.9033 57.8647 30.8067 57.9314 30.68C57.6581 30.62 57.4114 30.5133 57.1914 30.36C56.9714 30.2067 56.8014 30.05 56.6814 29.89C56.5881 29.91 56.5414 30 56.5414 30.16C56.5414 30.38 56.6047 30.5867 56.7314 30.78C56.8581 30.9733 57.0447 31.07 57.2914 31.07ZM58.0114 30.38C58.0247 30.3333 58.0314 30.28 58.0314 30.22C58.0381 30.1533 58.0414 30.1033 58.0414 30.07C58.0347 29.77 57.9947 29.4733 57.9214 29.18C57.8481 28.8867 57.7747 28.5867 57.7014 28.28C57.5814 28.4867 57.4414 28.71 57.2814 28.95C57.1214 29.19 56.9714 29.3833 56.8314 29.53C56.9381 29.71 57.0947 29.88 57.3014 30.04C57.5081 30.2 57.7447 30.3133 58.0114 30.38ZM60.8673 31.51C60.5339 31.51 60.2639 31.44 60.0573 31.3C59.8573 31.1667 59.7139 30.9967 59.6273 30.79C59.5406 30.5767 59.4973 30.36 59.4973 30.14C59.4973 29.9467 59.5239 29.7967 59.5773 29.69C59.6306 29.5833 59.6973 29.5067 59.7773 29.46C59.8573 29.4067 59.9306 29.3667 59.9973 29.34C60.0706 29.3133 60.1239 29.2833 60.1573 29.25C60.3239 29.0767 60.4939 28.8767 60.6673 28.65C60.8473 28.4167 61.0006 28.16 61.1273 27.88V27.78C61.1273 27.5133 61.1706 27.3267 61.2573 27.22C61.3506 27.1067 61.4573 27.05 61.5773 27.05C61.6573 27.05 61.7139 27.07 61.7473 27.11C61.7873 27.15 61.8106 27.1967 61.8173 27.25C61.8173 27.29 61.8073 27.3367 61.7873 27.39C61.7739 27.4433 61.7673 27.5167 61.7673 27.61C61.7673 27.81 61.8139 28.04 61.9073 28.3C62.0073 28.5533 62.1039 28.8233 62.1973 29.11C62.2973 29.3967 62.3473 29.69 62.3473 29.99C62.3473 30.07 62.3439 30.1433 62.3373 30.21C62.3306 30.2767 62.3206 30.34 62.3073 30.4C62.5139 30.3467 62.7173 30.2333 62.9173 30.06C63.1173 29.88 63.3073 29.6167 63.4873 29.27L63.6073 29.36C63.4806 29.74 63.2973 30.0467 63.0573 30.28C62.8173 30.5067 62.5373 30.6467 62.2173 30.7C62.1106 30.9733 61.9339 31.1767 61.6873 31.31C61.4473 31.4433 61.1739 31.51 60.8673 31.51ZM60.7973 31.07C60.9306 31.07 61.0539 31.0367 61.1673 30.97C61.2806 30.9033 61.3706 30.8067 61.4373 30.68C61.1639 30.62 60.9173 30.5133 60.6973 30.36C60.4773 30.2067 60.3073 30.05 60.1873 29.89C60.0939 29.91 60.0473 30 60.0473 30.16C60.0473 30.38 60.1106 30.5867 60.2373 30.78C60.3639 30.9733 60.5506 31.07 60.7973 31.07ZM61.5173 30.38C61.5306 30.3333 61.5373 30.28 61.5373 30.22C61.5439 30.1533 61.5473 30.1033 61.5473 30.07C61.5406 29.77 61.5006 29.4733 61.4273 29.18C61.3539 28.8867 61.2806 28.5867 61.2073 28.28C61.0873 28.4867 60.9473 28.71 60.7873 28.95C60.6273 29.19 60.4773 29.3833 60.3373 29.53C60.4439 29.71 60.6006 29.88 60.8073 30.04C61.0139 30.2 61.2506 30.3133 61.5173 30.38ZM64.3531 28.03C64.4998 27.65 64.6531 27.26 64.8131 26.86C64.9731 26.46 65.1331 26.08 65.2931 25.72C65.4531 25.3533 65.6098 25.0267 65.7631 24.74C65.9165 24.4467 66.0631 24.2167 66.2031 24.05C66.3498 23.8833 66.4865 23.8 66.6131 23.8C66.6865 23.8 66.7498 23.83 66.8031 23.89C66.8631 23.9433 66.8931 24.0133 66.8931 24.1C66.8931 24.1933 66.8365 24.3767 66.7231 24.65C66.6165 24.9233 66.4731 25.25 66.2931 25.63C66.1131 26.01 65.9131 26.4133 65.6931 26.84C65.4731 27.2667 65.2531 27.6867 65.0331 28.1C64.8131 28.5067 64.6065 28.8733 64.4131 29.2C64.2198 29.5267 64.0598 29.78 63.9331 29.96C63.9131 29.9533 63.8931 29.9467 63.8731 29.94C63.8531 29.9333 63.8331 29.9267 63.8131 29.92C63.8198 29.7467 63.8498 29.55 63.9031 29.33C63.9631 29.11 64.0331 28.8867 64.1131 28.66C64.1998 28.4267 64.2798 28.2167 64.3531 28.03ZM63.6031 31.1C63.4965 31.1 63.4031 31.0733 63.3231 31.02C63.2431 30.9667 63.2031 30.88 63.2031 30.76C63.2031 30.6333 63.2698 30.5233 63.4031 30.43C63.5431 30.3367 63.6931 30.29 63.8531 30.29C63.9531 30.29 64.0331 30.3133 64.0931 30.36C64.1598 30.4067 64.1931 30.4867 64.1931 30.6C64.1931 30.7133 64.1331 30.8267 64.0131 30.94C63.8931 31.0467 63.7565 31.1 63.6031 31.1Z" fill="black"/>
</g>
<g filter="url(#filter1_d_120_165)">
<path d="M73.2775 44.7204L66.6811 40.9721L72.4766 37.1758L73.2775 44.7204Z" fill="#F7C311"/>
</g>
<defs>
<filter id="filter0_d_120_165" x="11" y="12" width="66" height="38" filterUnits="userSpaceOnUse" color-interpolation-filters="sRGB">
<feFlood flood-opacity="0" result="BackgroundImageFix"/>
<feColorMatrix in="SourceAlpha" type="matrix" values="0 0 0 0 0 0 0 0 0 0 0 0 0 0 0 0 0 0 127 0" result="hardAlpha"/>
<feOffset dy="4"/>
<feGaussianBlur stdDeviation="2"/>
<feComposite in2="hardAlpha" operator="out"/>
<feColorMatrix type="matrix" values="0 0 0 0 0 0 0 0 0 0 0 0 0 0 0 0 0 0 0.25 0"/>
<feBlend mode="normal" in2="BackgroundImageFix" result="effect1_dropShadow_120_165"/>
<feBlend mode="normal" in="SourceGraphic" in2="effect1_dropShadow_120_165" result="shape"/>
</filter>
<filter id="filter1_d_120_165" x="62.6812" y="37.1758" width="14.5962" height="15.5447" filterUnits="userSpaceOnUse" color-interpolation-filters="sRGB">
<feFlood flood-opacity="0" result="BackgroundImageFix"/>
<feColorMatrix in="SourceAlpha" type="matrix" values="0 0 0 0 0 0 0 0 0 0 0 0 0 0 0 0 0 0 127 0" result="hardAlpha"/>
<feOffset dy="4"/>
<feGaussianBlur stdDeviation="2"/>
<feComposite in2="hardAlpha" operator="out"/>
<feColorMatrix type="matrix" values="0 0 0 0 0 0 0 0 0 0 0 0 0 0 0 0 0 0 0.25 0"/>
<feBlend mode="normal" in2="BackgroundImageFix" result="effect1_dropShadow_120_165"/>
<feBlend mode="normal" in="SourceGraphic" in2="effect1_dropShadow_120_165" result="shape"/>
</filter>
</defs>
</svg>
