<svg width="102" height="46" viewBox="0 0 102 46" fill="none" xmlns="http://www.w3.org/2000/svg">
<g clip-path="url(#clip0_120_169)">
<g filter="url(#filter0_d_120_169)">
<rect x="13" y="13" width="80" height="23" rx="3" fill="#E6419A"/>
<path d="M19.17 28.87C18.97 28.87 18.78 28.8167 18.6 28.71C18.4267 28.6033 18.34 28.4667 18.34 28.3C18.34 28.2133 18.3533 28.12 18.38 28.02C18.4133 27.92 18.4433 27.8267 18.47 27.74C18.6767 27.1067 18.87 26.5167 19.05 25.97C19.23 25.4167 19.41 24.8867 19.59 24.38C19.7767 23.8667 19.97 23.3533 20.17 22.84C20.3767 22.3267 20.6067 21.79 20.86 21.23C20.6067 21.2833 20.39 21.3533 20.21 21.44C20.03 21.52 19.8833 21.5933 19.77 21.66C19.6567 21.72 19.5733 21.75 19.52 21.75C19.4867 21.75 19.4367 21.7267 19.37 21.68C19.31 21.6333 19.2567 21.58 19.21 21.52C19.1633 21.46 19.14 21.4067 19.14 21.36C19.3267 21.28 19.5433 21.1967 19.79 21.11C20.0433 21.0233 20.3167 20.95 20.61 20.89C20.9033 20.83 21.1967 20.8 21.49 20.8C21.8033 20.8 22.1233 20.8433 22.45 20.93C22.7767 21.01 23.0767 21.1333 23.35 21.3C23.63 21.46 23.8533 21.6633 24.02 21.91C24.1933 22.15 24.28 22.4333 24.28 22.76C24.28 23.1133 24.2 23.4167 24.04 23.67C23.88 23.9233 23.6667 24.1367 23.4 24.31C23.14 24.4833 22.8567 24.6233 22.55 24.73C22.2433 24.8367 21.9367 24.9167 21.63 24.97C21.33 25.0233 21.06 25.06 20.82 25.08C20.58 25.1 20.4 25.11 20.28 25.11H20.22C20.0333 25.77 19.85 26.43 19.67 27.09C19.49 27.7433 19.3233 28.3367 19.17 28.87ZM20.31 24.8C20.6833 24.7733 21.0567 24.71 21.43 24.61C21.8033 24.51 22.14 24.3733 22.44 24.2C22.7467 24.02 22.99 23.7967 23.17 23.53C23.3567 23.2633 23.45 22.9533 23.45 22.6C23.45 22.2667 23.36 21.9967 23.18 21.79C23.0067 21.5833 22.78 21.4267 22.5 21.32C22.2267 21.2133 21.9367 21.1567 21.63 21.15C21.39 21.6167 21.16 22.17 20.94 22.81C20.72 23.4433 20.51 24.1067 20.31 24.8ZM23.4819 28.47C23.2619 28.47 23.0719 28.3967 22.9119 28.25C22.7452 28.1033 22.6619 27.8833 22.6619 27.59C22.6619 27.3567 22.7152 27.1033 22.8219 26.83C22.9285 26.5567 23.0752 26.2867 23.2619 26.02C23.4485 25.7533 23.6619 25.5133 23.9019 25.3C24.1419 25.08 24.3985 24.9033 24.6719 24.77C24.9452 24.6367 25.2185 24.57 25.4919 24.57C25.7785 24.57 26.0219 24.6433 26.2219 24.79C26.4219 24.9367 26.5219 25.13 26.5219 25.37C26.5219 25.55 26.4585 25.68 26.3319 25.76C26.2052 25.84 26.0552 25.8633 25.8819 25.83C25.8952 25.77 25.9052 25.71 25.9119 25.65C25.9252 25.59 25.9319 25.5267 25.9319 25.46C25.9319 25.3267 25.9052 25.2067 25.8519 25.1C25.7985 24.9933 25.6852 24.94 25.5119 24.94C25.3252 24.94 25.1352 25.0033 24.9419 25.13C24.7485 25.2567 24.5619 25.4233 24.3819 25.63C24.2085 25.83 24.0519 26.0533 23.9119 26.3C23.7719 26.54 23.6619 26.7767 23.5819 27.01C23.5019 27.2433 23.4619 27.4533 23.4619 27.64C23.4619 27.8533 23.5385 27.96 23.6919 27.96C23.8452 27.96 24.0152 27.8867 24.2019 27.74C24.3885 27.5867 24.5752 27.3967 24.7619 27.17C24.9552 26.9433 25.1385 26.7133 25.3119 26.48C25.4852 26.24 25.6352 26.0367 25.7619 25.87C25.7819 25.8367 25.8085 25.82 25.8419 25.82C25.8685 25.8267 25.9185 25.8433 25.9919 25.87C26.0719 25.89 26.1452 25.9233 26.2119 25.97C26.2785 26.0167 26.3119 26.0767 26.3119 26.15C26.3119 26.2167 26.2819 26.3033 26.2219 26.41C26.1685 26.51 26.1019 26.6233 26.0219 26.75C25.9485 26.87 25.8819 26.9933 25.8219 27.12C25.7685 27.24 25.7419 27.3567 25.7419 27.47C25.7419 27.5567 25.7652 27.64 25.8119 27.72C25.8585 27.7933 25.9352 27.83 26.0419 27.83C26.2019 27.83 26.4252 27.7133 26.7119 27.48C27.0052 27.24 27.3019 26.8367 27.6019 26.27L27.7919 26.46C27.6319 26.82 27.4385 27.14 27.2119 27.42C26.9919 27.6933 26.7585 27.9067 26.5119 28.06C26.2652 28.22 26.0152 28.3 25.7619 28.3C25.4885 28.3 25.2852 28.2133 25.1519 28.04C25.0185 27.8667 24.9452 27.68 24.9319 27.48C24.9319 27.4667 24.9319 27.4567 24.9319 27.45C24.9319 27.4433 24.9319 27.4367 24.9319 27.43C24.6652 27.75 24.4185 28.0033 24.1919 28.19C23.9719 28.3767 23.7352 28.47 23.4819 28.47ZM27.8452 30.8C27.6786 30.8 27.5219 30.7467 27.3752 30.64C27.2352 30.54 27.1652 30.3767 27.1652 30.15C27.1652 29.9367 27.2286 29.7433 27.3552 29.57C27.4819 29.4033 27.6452 29.2467 27.8452 29.1C28.0452 28.96 28.2586 28.83 28.4852 28.71C28.7186 28.5967 28.9419 28.49 29.1552 28.39C29.2286 28.1967 29.3086 27.9533 29.3952 27.66C29.4886 27.36 29.5686 27.0833 29.6352 26.83C29.4286 27.1167 29.2086 27.37 28.9752 27.59C28.7419 27.81 28.4819 27.92 28.1952 27.92C28.0752 27.92 27.9486 27.8967 27.8152 27.85C27.6819 27.7967 27.5686 27.71 27.4752 27.59C27.3886 27.4633 27.3452 27.2967 27.3452 27.09C27.3452 26.9167 27.3752 26.7067 27.4352 26.46C27.5019 26.2133 27.5819 25.9733 27.6752 25.74C27.7752 25.5 27.8786 25.3033 27.9852 25.15C28.0919 24.99 28.1852 24.91 28.2652 24.91C28.3052 24.91 28.3619 24.9267 28.4352 24.96C28.5152 24.9867 28.5919 25.0267 28.6652 25.08C28.7386 25.1267 28.7852 25.18 28.8052 25.24C28.7452 25.32 28.6786 25.4367 28.6052 25.59C28.5319 25.7367 28.4619 25.9033 28.3952 26.09C28.3286 26.27 28.2719 26.4467 28.2252 26.62C28.1852 26.7933 28.1652 26.9433 28.1652 27.07C28.1652 27.17 28.1852 27.2567 28.2252 27.33C28.2652 27.4033 28.3419 27.44 28.4552 27.44C28.6019 27.44 28.7519 27.38 28.9052 27.26C29.0652 27.14 29.2186 26.9867 29.3652 26.8C29.5186 26.6133 29.6552 26.4233 29.7752 26.23C29.7886 26.1833 29.8019 26.11 29.8152 26.01C29.8286 25.91 29.8519 25.8067 29.8852 25.7C29.9186 25.5867 29.9752 25.4833 30.0552 25.39C30.1419 25.2967 30.2619 25.25 30.4152 25.25C30.4686 25.25 30.5186 25.2533 30.5652 25.26C30.6119 25.2667 30.6686 25.2767 30.7352 25.29C30.7352 25.39 30.6986 25.5867 30.6252 25.88C30.5586 26.1667 30.4686 26.5 30.3552 26.88C30.2419 27.26 30.1152 27.64 29.9752 28.02C30.2552 27.9067 30.5452 27.72 30.8452 27.46C31.1519 27.1933 31.3986 26.8167 31.5852 26.33L31.7552 26.47C31.6552 26.8033 31.5019 27.0933 31.2952 27.34C31.0952 27.5867 30.8686 27.7967 30.6152 27.97C30.3619 28.1433 30.1052 28.2867 29.8452 28.4C29.6652 28.8333 29.4686 29.2333 29.2552 29.6C29.0486 29.9667 28.8286 30.2567 28.5952 30.47C28.3619 30.69 28.1119 30.8 27.8452 30.8ZM27.7452 30.43C27.8719 30.43 28.0486 30.2967 28.2752 30.03C28.5019 29.7633 28.7319 29.3633 28.9652 28.83C28.7519 28.9367 28.5352 29.06 28.3152 29.2C28.1019 29.3467 27.9219 29.5 27.7752 29.66C27.6286 29.82 27.5552 29.9833 27.5552 30.15C27.5552 30.2167 27.5686 30.28 27.5952 30.34C27.6286 30.4 27.6786 30.43 27.7452 30.43ZM36.2968 28.87C35.9101 28.87 35.5401 28.8033 35.1868 28.67C34.8401 28.5367 34.5568 28.3333 34.3368 28.06C34.1168 27.7867 34.0068 27.4467 34.0068 27.04C34.0068 26.68 34.0868 26.4 34.2468 26.2C34.4068 25.9933 34.6068 25.85 34.8468 25.77C35.0868 25.69 35.3201 25.65 35.5468 25.65C35.3335 25.8767 35.1701 26.11 35.0568 26.35C34.9501 26.59 34.8968 26.82 34.8968 27.04C34.8968 27.2667 34.9535 27.48 35.0668 27.68C35.1868 27.8733 35.3635 28.03 35.5968 28.15C35.8301 28.2767 36.1201 28.34 36.4668 28.34C36.7668 28.34 37.0568 28.29 37.3368 28.19C37.6235 28.09 37.8568 27.94 38.0368 27.74C38.2235 27.54 38.3168 27.29 38.3168 26.99C38.3168 26.7167 38.2368 26.4833 38.0768 26.29C37.9235 26.09 37.7235 25.9133 37.4768 25.76C37.2301 25.6 36.9701 25.45 36.6968 25.31C36.4235 25.1633 36.1635 25.0067 35.9168 24.84C35.6701 24.6733 35.4668 24.48 35.3068 24.26C35.1535 24.04 35.0768 23.7767 35.0768 23.47C35.0768 23.1967 35.1435 22.9067 35.2768 22.6C35.4168 22.2867 35.6135 21.9933 35.8668 21.72C36.1201 21.4467 36.4268 21.2267 36.7868 21.06C37.1468 20.8867 37.5468 20.8 37.9868 20.8C38.4468 20.8 38.7701 20.8967 38.9568 21.09C39.1435 21.2833 39.2368 21.5367 39.2368 21.85C39.2368 22.0967 39.1935 22.36 39.1068 22.64C39.0201 22.92 38.9135 23.1867 38.7868 23.44C38.6668 23.6933 38.5501 23.91 38.4368 24.09C38.2901 24.0567 38.1801 24 38.1068 23.92C38.0335 23.8333 37.9968 23.72 37.9968 23.58C37.9968 23.44 38.0235 23.2833 38.0768 23.11C38.1368 22.9367 38.2035 22.7567 38.2768 22.57C38.3568 22.3833 38.4235 22.2033 38.4768 22.03C38.5368 21.85 38.5668 21.6933 38.5668 21.56C38.5668 21.44 38.5301 21.3467 38.4568 21.28C38.3901 21.2133 38.2501 21.18 38.0368 21.18C37.7168 21.18 37.4235 21.25 37.1568 21.39C36.8901 21.53 36.6568 21.7067 36.4568 21.92C36.2635 22.1333 36.1135 22.36 36.0068 22.6C35.9001 22.8333 35.8468 23.0467 35.8468 23.24C35.8468 23.48 35.9235 23.6867 36.0768 23.86C36.2301 24.0267 36.4268 24.18 36.6668 24.32C36.9135 24.46 37.1701 24.6 37.4368 24.74C37.7101 24.88 37.9668 25.0367 38.2068 25.21C38.4535 25.3833 38.6535 25.59 38.8068 25.83C38.9601 26.07 39.0368 26.3633 39.0368 26.71C39.0368 27.0567 38.9568 27.3633 38.7968 27.63C38.6435 27.8967 38.4335 28.12 38.1668 28.3C37.9001 28.4867 37.6035 28.6267 37.2768 28.72C36.9568 28.82 36.6301 28.87 36.2968 28.87ZM40.2006 28.47C39.9806 28.47 39.7906 28.3967 39.6306 28.25C39.464 28.1033 39.3806 27.8833 39.3806 27.59C39.3806 27.3567 39.434 27.1033 39.5406 26.83C39.6473 26.5567 39.794 26.2867 39.9806 26.02C40.1673 25.7533 40.3806 25.5133 40.6206 25.3C40.8606 25.08 41.1173 24.9033 41.3906 24.77C41.664 24.6367 41.9373 24.57 42.2106 24.57C42.4973 24.57 42.7406 24.6433 42.9406 24.79C43.1406 24.9367 43.2406 25.13 43.2406 25.37C43.2406 25.55 43.1773 25.68 43.0506 25.76C42.924 25.84 42.774 25.8633 42.6006 25.83C42.614 25.77 42.624 25.71 42.6306 25.65C42.644 25.59 42.6506 25.5267 42.6506 25.46C42.6506 25.3267 42.624 25.2067 42.5706 25.1C42.5173 24.9933 42.404 24.94 42.2306 24.94C42.044 24.94 41.854 25.0033 41.6606 25.13C41.4673 25.2567 41.2806 25.4233 41.1006 25.63C40.9273 25.83 40.7706 26.0533 40.6306 26.3C40.4906 26.54 40.3806 26.7767 40.3006 27.01C40.2206 27.2433 40.1806 27.4533 40.1806 27.64C40.1806 27.8533 40.2573 27.96 40.4106 27.96C40.564 27.96 40.734 27.8867 40.9206 27.74C41.1073 27.5867 41.294 27.3967 41.4806 27.17C41.674 26.9433 41.8573 26.7133 42.0306 26.48C42.204 26.24 42.354 26.0367 42.4806 25.87C42.5006 25.8367 42.5273 25.82 42.5606 25.82C42.5873 25.8267 42.6373 25.8433 42.7106 25.87C42.7906 25.89 42.864 25.9233 42.9306 25.97C42.9973 26.0167 43.0306 26.0767 43.0306 26.15C43.0306 26.2167 43.0006 26.3033 42.9406 26.41C42.8873 26.51 42.8206 26.6233 42.7406 26.75C42.6673 26.87 42.6006 26.9933 42.5406 27.12C42.4873 27.24 42.4606 27.3567 42.4606 27.47C42.4606 27.5567 42.484 27.64 42.5306 27.72C42.5773 27.7933 42.654 27.83 42.7606 27.83C42.9206 27.83 43.144 27.7133 43.4306 27.48C43.724 27.24 44.0206 26.8367 44.3206 26.27L44.5106 26.46C44.3506 26.82 44.1573 27.14 43.9306 27.42C43.7106 27.6933 43.4773 27.9067 43.2306 28.06C42.984 28.22 42.734 28.3 42.4806 28.3C42.2073 28.3 42.004 28.2133 41.8706 28.04C41.7373 27.8667 41.664 27.68 41.6506 27.48C41.6506 27.4667 41.6506 27.4567 41.6506 27.45C41.6506 27.4433 41.6506 27.4367 41.6506 27.43C41.384 27.75 41.1373 28.0033 40.9106 28.19C40.6906 28.3767 40.454 28.47 40.2006 28.47ZM44.074 30.8C44.0007 30.8 43.914 30.7767 43.814 30.73C43.7073 30.6833 43.6173 30.59 43.544 30.45C43.464 30.3167 43.424 30.1133 43.424 29.84C43.424 29.5533 43.474 29.1767 43.574 28.71C43.6673 28.25 43.8007 27.74 43.974 27.18C44.1407 26.6133 44.3373 26.0333 44.564 25.44C44.7973 24.8467 45.044 24.2767 45.304 23.73C45.5707 23.1767 45.844 22.68 46.124 22.24C46.4107 21.8 46.694 21.45 46.974 21.19C47.254 20.93 47.524 20.8 47.784 20.8C47.9573 20.8 48.0707 20.8533 48.124 20.96C48.1773 21.06 48.204 21.1767 48.204 21.31C48.204 21.5967 48.124 21.91 47.964 22.25C47.8107 22.59 47.604 22.9333 47.344 23.28C47.084 23.62 46.7907 23.9433 46.464 24.25C46.144 24.5567 45.814 24.82 45.474 25.04C45.4473 25.1067 45.4207 25.1733 45.394 25.24C45.3673 25.3067 45.3407 25.3733 45.314 25.44C45.3873 25.4667 45.444 25.5133 45.484 25.58C45.5307 25.6467 45.5573 25.7167 45.564 25.79C45.6173 26.0767 45.6707 26.3333 45.724 26.56C45.7773 26.78 45.8573 26.9533 45.964 27.08C46.0773 27.2067 46.2373 27.27 46.444 27.27C46.6773 27.27 46.884 27.1833 47.064 27.01C47.244 26.8367 47.4273 26.5933 47.614 26.28L47.834 26.44C47.6207 26.8667 47.3807 27.18 47.114 27.38C46.8473 27.5733 46.6073 27.67 46.394 27.67C46.2807 27.67 46.1607 27.6467 46.034 27.6C45.914 27.5533 45.7973 27.4867 45.684 27.4C45.6773 27.8133 45.6273 28.22 45.534 28.62C45.4473 29.0267 45.3273 29.3933 45.174 29.72C45.0207 30.0467 44.8473 30.3067 44.654 30.5C44.4673 30.7 44.274 30.8 44.074 30.8ZM44.354 30.18C44.4273 30.18 44.504 30.1167 44.584 29.99C44.6707 29.8633 44.754 29.6967 44.834 29.49C44.914 29.2833 44.9873 29.0533 45.054 28.8C45.1207 28.5533 45.174 28.3067 45.214 28.06C45.254 27.82 45.274 27.6 45.274 27.4C45.274 27.2067 45.2507 27.0367 45.204 26.89C45.164 26.7367 45.0907 26.5667 44.984 26.38C44.8307 26.84 44.694 27.2833 44.574 27.71C44.454 28.1367 44.3607 28.5233 44.294 28.87C44.2273 29.2233 44.194 29.5167 44.194 29.75C44.194 30.0367 44.2473 30.18 44.354 30.18ZM45.764 24.34C46.1707 23.96 46.5173 23.59 46.804 23.23C47.0907 22.87 47.3073 22.5533 47.454 22.28C47.6073 22 47.684 21.8033 47.684 21.69C47.684 21.6367 47.6573 21.61 47.604 21.61C47.444 21.61 47.2607 21.7333 47.054 21.98C46.8473 22.22 46.634 22.5467 46.414 22.96C46.194 23.3733 45.9773 23.8333 45.764 24.34ZM48.5448 28.44C48.1181 28.44 47.7881 28.3233 47.5548 28.09C47.3281 27.8633 47.2148 27.5767 47.2148 27.23C47.2148 26.9367 47.2881 26.6267 47.4348 26.3C47.5881 25.9667 47.7914 25.6567 48.0448 25.37C48.2981 25.0767 48.5781 24.84 48.8848 24.66C49.1914 24.48 49.4981 24.39 49.8048 24.39C49.9781 24.39 50.1414 24.4367 50.2948 24.53C50.4548 24.6167 50.5348 24.7933 50.5348 25.06C50.5348 25.3133 50.4614 25.55 50.3148 25.77C50.1681 25.99 49.9714 26.1867 49.7248 26.36C49.4781 26.5333 49.2048 26.6767 48.9048 26.79C48.6114 26.8967 48.3148 26.9667 48.0148 27C48.0081 27.0267 48.0014 27.0567 47.9948 27.09C47.9948 27.1167 47.9948 27.1633 47.9948 27.23C47.9948 27.2633 47.9981 27.3233 48.0048 27.41C48.0181 27.49 48.0481 27.5767 48.0948 27.67C48.1414 27.7633 48.2181 27.8433 48.3248 27.91C48.4314 27.9767 48.5781 28.01 48.7648 28.01C49.0448 28.01 49.3248 27.9333 49.6048 27.78C49.8914 27.62 50.1581 27.41 50.4048 27.15C50.6581 26.89 50.8681 26.6 51.0348 26.28L51.2348 26.44C51.0548 26.84 50.8214 27.19 50.5348 27.49C50.2548 27.79 49.9414 28.0233 49.5948 28.19C49.2548 28.3567 48.9048 28.44 48.5448 28.44ZM48.1248 26.63C48.2981 26.61 48.4914 26.55 48.7048 26.45C48.9181 26.35 49.1214 26.2233 49.3148 26.07C49.5148 25.9167 49.6781 25.75 49.8048 25.57C49.9314 25.3833 49.9948 25.1967 49.9948 25.01C49.9948 24.9367 49.9814 24.8867 49.9548 24.86C49.9281 24.8333 49.8848 24.82 49.8248 24.82C49.6714 24.82 49.5114 24.8767 49.3448 24.99C49.1781 25.0967 49.0148 25.24 48.8548 25.42C48.6948 25.5933 48.5514 25.7867 48.4248 26C48.2981 26.2133 48.1981 26.4233 48.1248 26.63ZM55.7006 28.87C55.274 28.87 54.8973 28.7833 54.5706 28.61C54.2506 28.4433 54.0006 28.22 53.8206 27.94C53.6473 27.66 53.5606 27.35 53.5606 27.01C53.5606 26.71 53.624 26.4167 53.7506 26.13C53.8773 25.8433 54.054 25.58 54.2806 25.34C54.5073 25.1 54.7773 24.9 55.0906 24.74C55.404 24.5733 55.744 24.4633 56.1106 24.41C55.8773 24.1967 55.6973 23.96 55.5706 23.7C55.4506 23.44 55.3906 23.1767 55.3906 22.91C55.3906 22.55 55.4806 22.21 55.6606 21.89C55.8406 21.57 56.094 21.31 56.4206 21.11C56.754 20.91 57.1373 20.81 57.5706 20.81C57.9706 20.81 58.274 20.9067 58.4806 21.1C58.694 21.2867 58.8006 21.56 58.8006 21.92C58.8006 22.1733 58.7573 22.4233 58.6706 22.67C58.584 22.91 58.4773 23.11 58.3506 23.27C58.224 23.4233 58.0973 23.5 57.9706 23.5C57.8773 23.5 57.7873 23.46 57.7006 23.38C57.6206 23.2933 57.5506 23.1967 57.4906 23.09C57.7373 22.89 57.9406 22.68 58.1006 22.46C58.2673 22.24 58.3506 22.0133 58.3506 21.78C58.3506 21.5933 58.2973 21.4433 58.1906 21.33C58.084 21.21 57.914 21.15 57.6806 21.15C57.3806 21.15 57.1273 21.2367 56.9206 21.41C56.714 21.5833 56.5573 21.81 56.4506 22.09C56.344 22.3633 56.2906 22.6633 56.2906 22.99C56.2906 23.1433 56.304 23.3133 56.3306 23.5C56.364 23.6867 56.434 23.8767 56.5406 24.07C56.6473 24.2567 56.8073 24.4367 57.0206 24.61C56.5406 24.6833 56.124 24.85 55.7706 25.11C55.4173 25.3633 55.144 25.66 54.9506 26C54.7573 26.34 54.6606 26.6767 54.6606 27.01C54.6606 27.21 54.7006 27.4167 54.7806 27.63C54.8673 27.8433 55.0073 28.0233 55.2006 28.17C55.394 28.3167 55.6473 28.39 55.9606 28.39C56.3206 28.39 56.664 28.3067 56.9906 28.14C57.3173 27.9733 57.614 27.75 57.8806 27.47C58.154 27.1833 58.3773 26.8633 58.5506 26.51C58.724 26.1567 58.834 25.7933 58.8806 25.42C58.754 25.4267 58.6306 25.4367 58.5106 25.45C58.3973 25.4633 58.264 25.4833 58.1106 25.51C57.964 25.5367 57.7673 25.5733 57.5206 25.62C57.5273 25.28 57.6406 25.0533 57.8606 24.94C58.0806 24.8267 58.344 24.77 58.6506 24.77C58.864 24.77 59.0573 24.7833 59.2306 24.81C59.4106 24.8367 59.5873 24.8667 59.7606 24.9C59.9406 24.9267 60.1406 24.94 60.3606 24.94C60.254 25.16 60.1573 25.2933 60.0706 25.34C59.9906 25.38 59.9106 25.4 59.8306 25.4C59.7106 25.4 59.6073 25.4033 59.5206 25.41C59.4406 25.41 59.3573 25.41 59.2706 25.41C59.224 25.8633 59.094 26.2967 58.8806 26.71C58.674 27.1233 58.4073 27.4933 58.0806 27.82C57.754 28.1467 57.3873 28.4033 56.9806 28.59C56.574 28.7767 56.1473 28.87 55.7006 28.87ZM65.0663 28.87C64.6797 28.87 64.3097 28.8033 63.9563 28.67C63.6097 28.5367 63.3263 28.3333 63.1063 28.06C62.8863 27.7867 62.7763 27.4467 62.7763 27.04C62.7763 26.68 62.8563 26.4 63.0163 26.2C63.1763 25.9933 63.3763 25.85 63.6163 25.77C63.8563 25.69 64.0897 25.65 64.3163 25.65C64.103 25.8767 63.9397 26.11 63.8263 26.35C63.7197 26.59 63.6663 26.82 63.6663 27.04C63.6663 27.2667 63.723 27.48 63.8363 27.68C63.9563 27.8733 64.133 28.03 64.3663 28.15C64.5997 28.2767 64.8897 28.34 65.2363 28.34C65.5363 28.34 65.8263 28.29 66.1063 28.19C66.393 28.09 66.6263 27.94 66.8063 27.74C66.993 27.54 67.0863 27.29 67.0863 26.99C67.0863 26.7167 67.0063 26.4833 66.8463 26.29C66.693 26.09 66.493 25.9133 66.2463 25.76C65.9997 25.6 65.7397 25.45 65.4663 25.31C65.193 25.1633 64.933 25.0067 64.6863 24.84C64.4397 24.6733 64.2363 24.48 64.0763 24.26C63.923 24.04 63.8463 23.7767 63.8463 23.47C63.8463 23.1967 63.913 22.9067 64.0463 22.6C64.1863 22.2867 64.383 21.9933 64.6363 21.72C64.8897 21.4467 65.1963 21.2267 65.5563 21.06C65.9163 20.8867 66.3163 20.8 66.7563 20.8C67.2163 20.8 67.5397 20.8967 67.7263 21.09C67.913 21.2833 68.0063 21.5367 68.0063 21.85C68.0063 22.0967 67.963 22.36 67.8763 22.64C67.7897 22.92 67.683 23.1867 67.5563 23.44C67.4363 23.6933 67.3197 23.91 67.2063 24.09C67.0597 24.0567 66.9497 24 66.8763 23.92C66.803 23.8333 66.7663 23.72 66.7663 23.58C66.7663 23.44 66.793 23.2833 66.8463 23.11C66.9063 22.9367 66.973 22.7567 67.0463 22.57C67.1263 22.3833 67.193 22.2033 67.2463 22.03C67.3063 21.85 67.3363 21.6933 67.3363 21.56C67.3363 21.44 67.2997 21.3467 67.2263 21.28C67.1597 21.2133 67.0197 21.18 66.8063 21.18C66.4863 21.18 66.193 21.25 65.9263 21.39C65.6597 21.53 65.4263 21.7067 65.2263 21.92C65.033 22.1333 64.883 22.36 64.7763 22.6C64.6697 22.8333 64.6163 23.0467 64.6163 23.24C64.6163 23.48 64.693 23.6867 64.8463 23.86C64.9997 24.0267 65.1963 24.18 65.4363 24.32C65.683 24.46 65.9397 24.6 66.2063 24.74C66.4797 24.88 66.7363 25.0367 66.9763 25.21C67.223 25.3833 67.423 25.59 67.5763 25.83C67.7297 26.07 67.8063 26.3633 67.8063 26.71C67.8063 27.0567 67.7263 27.3633 67.5663 27.63C67.413 27.8967 67.203 28.12 66.9363 28.3C66.6697 28.4867 66.373 28.6267 66.0463 28.72C65.7263 28.82 65.3997 28.87 65.0663 28.87ZM69.5702 28.44C69.1435 28.44 68.8135 28.3233 68.5802 28.09C68.3535 27.8633 68.2402 27.5767 68.2402 27.23C68.2402 26.9367 68.3135 26.6267 68.4602 26.3C68.6135 25.9667 68.8168 25.6567 69.0702 25.37C69.3235 25.0767 69.6035 24.84 69.9102 24.66C70.2168 24.48 70.5235 24.39 70.8302 24.39C71.0035 24.39 71.1668 24.4367 71.3202 24.53C71.4802 24.6167 71.5602 24.7933 71.5602 25.06C71.5602 25.3133 71.4868 25.55 71.3402 25.77C71.1935 25.99 70.9968 26.1867 70.7502 26.36C70.5035 26.5333 70.2302 26.6767 69.9302 26.79C69.6368 26.8967 69.3402 26.9667 69.0402 27C69.0335 27.0267 69.0268 27.0567 69.0202 27.09C69.0202 27.1167 69.0202 27.1633 69.0202 27.23C69.0202 27.2633 69.0235 27.3233 69.0302 27.41C69.0435 27.49 69.0735 27.5767 69.1202 27.67C69.1668 27.7633 69.2435 27.8433 69.3502 27.91C69.4568 27.9767 69.6035 28.01 69.7902 28.01C70.0702 28.01 70.3502 27.9333 70.6302 27.78C70.9168 27.62 71.1835 27.41 71.4302 27.15C71.6835 26.89 71.8935 26.6 72.0602 26.28L72.2602 26.44C72.0802 26.84 71.8468 27.19 71.5602 27.49C71.2802 27.79 70.9668 28.0233 70.6202 28.19C70.2802 28.3567 69.9302 28.44 69.5702 28.44ZM69.1502 26.63C69.3235 26.61 69.5168 26.55 69.7302 26.45C69.9435 26.35 70.1468 26.2233 70.3402 26.07C70.5402 25.9167 70.7035 25.75 70.8302 25.57C70.9568 25.3833 71.0202 25.1967 71.0202 25.01C71.0202 24.9367 71.0068 24.8867 70.9802 24.86C70.9535 24.8333 70.9102 24.82 70.8502 24.82C70.6968 24.82 70.5368 24.8767 70.3702 24.99C70.2035 25.0967 70.0402 25.24 69.8802 25.42C69.7202 25.5933 69.5768 25.7867 69.4502 26C69.3235 26.2133 69.2235 26.4233 69.1502 26.63ZM72.9484 28.56C72.6017 28.56 72.315 28.45 72.0884 28.23C71.8684 28.0167 71.7584 27.6867 71.7584 27.24C71.7584 26.9133 71.8217 26.5933 71.9484 26.28C72.075 25.9667 72.245 25.6867 72.4584 25.44C72.6717 25.1867 72.9084 24.9867 73.1684 24.84C73.435 24.6933 73.705 24.62 73.9784 24.62C74.2584 24.62 74.4584 24.69 74.5784 24.83C74.705 24.97 74.7684 25.1333 74.7684 25.32C74.7684 25.5067 74.7217 25.69 74.6284 25.87C74.5417 26.0433 74.4217 26.13 74.2684 26.13C74.1417 26.13 74.0384 26.0667 73.9584 25.94C74.025 25.8933 74.095 25.8067 74.1684 25.68C74.2417 25.5533 74.2784 25.39 74.2784 25.19C74.2784 25.1367 74.265 25.0967 74.2384 25.07C74.2117 25.0367 74.1617 25.02 74.0884 25.02C73.9217 25.02 73.745 25.0967 73.5584 25.25C73.3784 25.3967 73.2084 25.59 73.0484 25.83C72.895 26.0633 72.7684 26.3133 72.6684 26.58C72.575 26.84 72.5284 27.08 72.5284 27.3C72.5284 27.4867 72.575 27.66 72.6684 27.82C72.7684 27.9733 72.9584 28.05 73.2384 28.05C73.4917 28.05 73.755 27.9767 74.0284 27.83C74.3017 27.6833 74.5584 27.48 74.7984 27.22C75.0384 26.9533 75.2317 26.6367 75.3784 26.27L75.5784 26.45C75.4184 26.8567 75.195 27.22 74.9084 27.54C74.6284 27.8533 74.315 28.1 73.9684 28.28C73.6284 28.4667 73.2884 28.56 72.9484 28.56ZM75.9084 28.3C75.6818 28.3 75.4951 28.1967 75.3484 27.99C75.2084 27.7767 75.1384 27.5333 75.1384 27.26C75.1384 27.0733 75.1684 26.8533 75.2284 26.6C75.2884 26.3467 75.3651 26.1 75.4584 25.86C75.5584 25.62 75.6584 25.42 75.7584 25.26C75.8651 25.1 75.9618 25.02 76.0484 25.02C76.0951 25.02 76.1651 25.0467 76.2584 25.1C76.3584 25.1467 76.4451 25.2067 76.5184 25.28C76.4451 25.3867 76.3551 25.55 76.2484 25.77C76.1484 25.99 76.0584 26.2267 75.9784 26.48C75.8984 26.7333 75.8584 26.9633 75.8584 27.17C75.8584 27.1967 75.8618 27.26 75.8684 27.36C75.8818 27.46 75.9084 27.5533 75.9484 27.64C75.9884 27.7267 76.0584 27.77 76.1584 27.77C76.2718 27.77 76.3918 27.71 76.5184 27.59C76.6518 27.4633 76.7851 27.3033 76.9184 27.11C77.0584 26.91 77.1918 26.6967 77.3184 26.47C77.4518 26.2433 77.5684 26.0233 77.6684 25.81C77.7751 25.5967 77.8618 25.4167 77.9284 25.27C77.9884 25.2767 78.0651 25.2933 78.1584 25.32C78.2584 25.3467 78.3451 25.3833 78.4184 25.43C78.4918 25.47 78.5284 25.53 78.5284 25.61C78.5284 25.63 78.4951 25.7133 78.4284 25.86C78.3684 26 78.2951 26.17 78.2084 26.37C78.1284 26.57 78.0551 26.7767 77.9884 26.99C77.9284 27.1967 77.8984 27.38 77.8984 27.54C77.8984 27.6333 77.9151 27.7167 77.9484 27.79C77.9884 27.8567 78.0618 27.89 78.1684 27.89C78.3084 27.89 78.4751 27.8267 78.6684 27.7C78.8618 27.5733 79.0618 27.39 79.2684 27.15C79.4751 26.91 79.6584 26.6233 79.8184 26.29L79.9684 26.41C79.8218 26.77 79.6318 27.0933 79.3984 27.38C79.1651 27.6667 78.9151 27.89 78.6484 28.05C78.3818 28.2167 78.1218 28.3 77.8684 28.3C77.6751 28.3 77.5284 28.2533 77.4284 28.16C77.3351 28.0733 77.2718 27.96 77.2384 27.82C77.2051 27.6733 77.1851 27.5267 77.1784 27.38C77.1784 27.3467 77.1784 27.3133 77.1784 27.28C77.1784 27.24 77.1784 27.2067 77.1784 27.18C77.0651 27.36 76.9418 27.5367 76.8084 27.71C76.6751 27.8767 76.5318 28.0167 76.3784 28.13C76.2318 28.2433 76.0751 28.3 75.9084 28.3ZM81.4125 28.26C81.1658 28.26 80.9658 28.1933 80.8125 28.06C80.6592 27.9333 80.5825 27.76 80.5825 27.54C80.5825 27.3533 80.6292 27.1533 80.7225 26.94C80.8158 26.7267 80.9092 26.5167 81.0025 26.31C81.1025 26.1033 81.1525 25.92 81.1525 25.76C81.1525 25.6067 81.1025 25.48 81.0025 25.38C80.9025 25.2733 80.7858 25.1867 80.6525 25.12C80.5058 25.4867 80.3392 25.8433 80.1525 26.19C79.9725 26.53 79.8258 26.7967 79.7125 26.99L79.5625 26.7C79.6558 26.5267 79.7792 26.28 79.9325 25.96C80.0858 25.64 80.2325 25.2833 80.3725 24.89C80.3058 24.8233 80.2725 24.7333 80.2725 24.62C80.2725 24.4467 80.3258 24.2833 80.4325 24.13C80.5392 23.9767 80.6425 23.9 80.7425 23.9C80.8225 23.9 80.8792 23.9467 80.9125 24.04C80.9525 24.1267 80.9725 24.1867 80.9725 24.22C80.9725 24.2533 80.9558 24.3133 80.9225 24.4C80.8958 24.4867 80.8758 24.55 80.8625 24.59C80.8692 24.6633 80.9258 24.7367 81.0325 24.81C81.1458 24.8767 81.2725 24.9567 81.4125 25.05C81.5525 25.1433 81.6758 25.26 81.7825 25.4C81.8892 25.54 81.9425 25.7167 81.9425 25.93C81.9425 26.1233 81.8992 26.32 81.8125 26.52C81.7258 26.72 81.6392 26.9067 81.5525 27.08C81.4658 27.2533 81.4225 27.4033 81.4225 27.53C81.4225 27.6233 81.4458 27.6867 81.4925 27.72C81.5458 27.7467 81.6058 27.76 81.6725 27.76C81.8325 27.76 81.9992 27.7133 82.1725 27.62C82.3458 27.52 82.5158 27.3933 82.6825 27.24C82.8492 27.0867 82.9958 26.9267 83.1225 26.76C83.2492 26.5867 83.3458 26.43 83.4125 26.29L83.6525 26.47C83.5258 26.7567 83.3425 27.04 83.1025 27.32C82.8625 27.5933 82.5958 27.82 82.3025 28C82.0092 28.1733 81.7125 28.26 81.4125 28.26ZM84.3553 28.44C83.9286 28.44 83.5986 28.3233 83.3653 28.09C83.1386 27.8633 83.0253 27.5767 83.0253 27.23C83.0253 26.9367 83.0986 26.6267 83.2453 26.3C83.3986 25.9667 83.602 25.6567 83.8553 25.37C84.1086 25.0767 84.3886 24.84 84.6953 24.66C85.002 24.48 85.3086 24.39 85.6153 24.39C85.7886 24.39 85.952 24.4367 86.1053 24.53C86.2653 24.6167 86.3453 24.7933 86.3453 25.06C86.3453 25.3133 86.272 25.55 86.1253 25.77C85.9786 25.99 85.782 26.1867 85.5353 26.36C85.2886 26.5333 85.0153 26.6767 84.7153 26.79C84.422 26.8967 84.1253 26.9667 83.8253 27C83.8186 27.0267 83.812 27.0567 83.8053 27.09C83.8053 27.1167 83.8053 27.1633 83.8053 27.23C83.8053 27.2633 83.8086 27.3233 83.8153 27.41C83.8286 27.49 83.8586 27.5767 83.9053 27.67C83.952 27.7633 84.0286 27.8433 84.1353 27.91C84.242 27.9767 84.3886 28.01 84.5753 28.01C84.8553 28.01 85.1353 27.9333 85.4153 27.78C85.702 27.62 85.9686 27.41 86.2153 27.15C86.4686 26.89 86.6786 26.6 86.8453 26.28L87.0453 26.44C86.8653 26.84 86.632 27.19 86.3453 27.49C86.0653 27.79 85.752 28.0233 85.4053 28.19C85.0653 28.3567 84.7153 28.44 84.3553 28.44ZM83.9353 26.63C84.1086 26.61 84.302 26.55 84.5153 26.45C84.7286 26.35 84.932 26.2233 85.1253 26.07C85.3253 25.9167 85.4886 25.75 85.6153 25.57C85.742 25.3833 85.8053 25.1967 85.8053 25.01C85.8053 24.9367 85.792 24.8867 85.7653 24.86C85.7386 24.8333 85.6953 24.82 85.6353 24.82C85.482 24.82 85.322 24.8767 85.1553 24.99C84.9886 25.0967 84.8253 25.24 84.6653 25.42C84.5053 25.5933 84.362 25.7867 84.2353 26C84.1086 26.2133 84.0086 26.4233 83.9353 26.63Z" fill="white"/>
</g>
<g filter="url(#filter1_d_120_169)">
<path d="M12.3118 38.6946L13.2295 31.1633L18.9655 35.0489L12.3118 38.6946Z" fill="#E6419A"/>
</g>
</g>
<defs>
<filter id="filter0_d_120_169" x="9" y="13" width="88" height="31" filterUnits="userSpaceOnUse" color-interpolation-filters="sRGB">
<feFlood flood-opacity="0" result="BackgroundImageFix"/>
<feColorMatrix in="SourceAlpha" type="matrix" values="0 0 0 0 0 0 0 0 0 0 0 0 0 0 0 0 0 0 127 0" result="hardAlpha"/>
<feOffset dy="4"/>
<feGaussianBlur stdDeviation="2"/>
<feComposite in2="hardAlpha" operator="out"/>
<feColorMatrix type="matrix" values="0 0 0 0 0 0 0 0 0 0 0 0 0 0 0 0 0 0 0.25 0"/>
<feBlend mode="normal" in2="BackgroundImageFix" result="effect1_dropShadow_120_169"/>
<feBlend mode="normal" in="SourceGraphic" in2="effect1_dropShadow_120_169" result="shape"/>
</filter>
<filter id="filter1_d_120_169" x="8.31201" y="31.1633" width="14.6533" height="15.5312" filterUnits="userSpaceOnUse" color-interpolation-filters="sRGB">
<feFlood flood-opacity="0" result="BackgroundImageFix"/>
<feColorMatrix in="SourceAlpha" type="matrix" values="0 0 0 0 0 0 0 0 0 0 0 0 0 0 0 0 0 0 127 0" result="hardAlpha"/>
<feOffset dy="4"/>
<feGaussianBlur stdDeviation="2"/>
<feComposite in2="hardAlpha" operator="out"/>
<feColorMatrix type="matrix" values="0 0 0 0 0 0 0 0 0 0 0 0 0 0 0 0 0 0 0.25 0"/>
<feBlend mode="normal" in2="BackgroundImageFix" result="effect1_dropShadow_120_169"/>
<feBlend mode="normal" in="SourceGraphic" in2="effect1_dropShadow_120_169" result="shape"/>
</filter>
<clipPath id="clip0_120_169">
<rect width="102" height="46" fill="white"/>
</clipPath>
</defs>
</svg>
